<svg xmlns="http://www.w3.org/2000/svg" width="1024" height="1024" viewBox="0 0 1024 1024" fill="none">
  <defs>
    <linearGradient id="bg" x1="92" y1="42" x2="948" y2="1016" gradientUnits="userSpaceOnUse">
      <stop offset="0" stop-color="#F7FAFF" stop-opacity="0.95"/>
      <stop offset="1" stop-color="#CFE2FF" stop-opacity="0.86"/>
    </linearGradient>
    <linearGradient id="gloss" x1="120" y1="80" x2="904" y2="680" gradientUnits="userSpaceOnUse">
      <stop offset="0" stop-color="#FFFFFF" stop-opacity="0.62"/>
      <stop offset="1" stop-color="#FFFFFF" stop-opacity="0.08"/>
    </linearGradient>
    <linearGradient id="orange" x1="356" y1="174" x2="706" y2="758" gradientUnits="userSpaceOnUse">
      <stop offset="0" stop-color="#FFA414"/>
      <stop offset="1" stop-color="#FF8A00"/>
    </linearGradient>
  </defs>

  <!-- Liquid glass plate -->
  <rect x="0" y="0" width="1024" height="1024" rx="230" fill="url(#bg)"/>
  <rect x="0" y="0" width="1024" height="1024" rx="230" fill="url(#gloss)"/>
  <rect x="0" y="0" width="1024" height="1024" rx="230" stroke="#FFFFFF" stroke-opacity="0.72" stroke-width="3"/>

  <!-- Soft internal highlight -->
  <path d="M126 164C196 72 304 32 428 32H706C810 32 900 76 964 154" stroke="#FFFFFF" stroke-opacity="0.58" stroke-width="20" stroke-linecap="round"/>

  <!-- Classic Everything magnifier, scaled down for Liquid Glass balance -->
  <g transform="translate(540 520) scale(1.12) translate(-512 -512)" fill="none" stroke-linecap="round" stroke-linejoin="round">
    <circle cx="544" cy="440" r="244" stroke="#A95500" stroke-width="144"/>
    <line x1="372" y1="616" x2="156" y2="840" stroke="#A95500" stroke-width="144"/>

    <circle cx="544" cy="440" r="244" stroke="url(#orange)" stroke-width="124"/>
    <line x1="372" y1="616" x2="156" y2="840" stroke="url(#orange)" stroke-width="124"/>

    <path d="M404 248C448 208 492 190 544 188" stroke="#FFD58A" stroke-opacity="0.72" stroke-width="34"/>
  </g>
</svg>
